<svg width="40" height="40" viewBox="0 0 40 40" fill="none" xmlns="http://www.w3.org/2000/svg">
<circle cx="20" cy="20" r="20" fill="#5C5EA6"/>
<path d="M28.6065 18.901L16.2335 10.2593C16.1293 10.1865 16.01 10.1467 15.8879 10.1441C15.7658 10.1415 15.6452 10.1761 15.5387 10.2444C15.4322 10.3127 15.3435 10.4122 15.2818 10.5326C15.22 10.653 15.1875 10.7901 15.1875 10.9297V28.2132C15.1875 28.3528 15.22 28.4898 15.2818 28.6103C15.3435 28.7307 15.4322 28.8302 15.5387 28.8985C15.6452 28.9668 15.7658 29.0014 15.8879 28.9988C16.01 28.9961 16.1293 28.9564 16.2335 28.8836L28.6065 20.2419C28.707 20.1717 28.79 20.0732 28.8476 19.9558C28.9052 19.8384 28.9355 19.706 28.9355 19.5714C28.9355 19.4368 28.9052 19.3045 28.8476 19.1871C28.79 19.0697 28.707 18.9712 28.6065 18.901Z" fill="white"/>
<path d="M28.6065 18.901L16.2335 10.2593C16.1293 10.1865 16.01 10.1467 15.8879 10.1441C15.7658 10.1415 15.6452 10.1761 15.5387 10.2444C15.4322 10.3127 15.3435 10.4122 15.2818 10.5326C15.22 10.653 15.1875 10.7901 15.1875 10.9297V28.2132C15.1875 28.3528 15.22 28.4898 15.2818 28.6103C15.3435 28.7307 15.4322 28.8302 15.5387 28.8985C15.6452 28.9668 15.7658 29.0014 15.8879 28.9988C16.01 28.9961 16.1293 28.9564 16.2335 28.8836L28.6065 20.2419C28.707 20.1717 28.79 20.0732 28.8476 19.9558C28.9052 19.8384 28.9355 19.706 28.9355 19.5714C28.9355 19.4368 28.9052 19.3045 28.8476 19.1871C28.79 19.0697 28.707 18.9712 28.6065 18.901Z" stroke="white" stroke-width="2" stroke-linecap="round" stroke-linejoin="round"/>
</svg>
